# xmcd
#
# Track frame offsets: 
#        150
#        15213
#        28256
#        42855
#        58816
#        77935
#        91810
#        111271
#        128814
#        147862
#        164839
#        182119
#
# Disc length: 2611 seconds
#
# Revision: 0
# Processed by: cddbd v1.4PL0 Copyright (c) Steve Scherf et al.
# Submitted via: ExactAudioCopy v0.90b4
#
DISCID=a10a310c
DTITLE=Rosie Ledet - Now's The Time
DYEAR=2003
DGENRE=Country
TTITLE0=Zydeco Yeah
TTITLE1=Now's The Time
TTITLE2=Do That Thing
TTITLE3=More Than I Can Say
TTITLE4=Take A Chance
TTITLE5=Paradise
TTITLE6=Little Rosie
TTITLE7=Close Enough
TTITLE8=Zydeco Stroll
TTITLE9=Biker Boys
TTITLE10=Touch To Feel
TTITLE11=Don't Look Back
EXTD=
EXTT0=
EXTT1=
EXTT2=
EXTT3=
EXTT4=
EXTT5=
EXTT6=
EXTT7=
EXTT8=
EXTT9=
EXTT10=
EXTT11=
PLAYORDER=
